<svg width="158" height="158" viewBox="0 0 158 158" fill="none" xmlns="http://www.w3.org/2000/svg">
<path d="M125.305 118.081H52.2385C32.9912 118.081 23.3742 118.081 17.5029 110.753C6.37042 96.8459 19.0576 59.847 26.7395 45.9199C29.3438 61.6641 56.168 61.2246 65.936 59.0401C59.4284 45.9265 68.1139 41.5509 72.4567 39.3599H72.4698C91.8417 62.3202 133.269 74.8106 143.417 99.8373C147.806 110.648 135.302 118.081 125.305 118.081Z" stroke="black" stroke-width="6.56008" stroke-linecap="round" stroke-linejoin="round"/>
<path d="M13.1211 91.841C40.4438 101.222 57.277 103.938 78.8662 97.1153C85.4066 95.0488 88.6736 94.0124 90.7138 94.1501C92.7474 94.2944 96.913 96.2297 105.231 100.113C115.616 104.955 129.871 107.743 144.323 100.75M88.562 62.3206L98.4022 52.4805M101.682 72.1607L111.522 62.3206" stroke="black" stroke-width="6.56008" stroke-linecap="round" stroke-linejoin="round"/>
</svg>
